<svg xmlns="http://www.w3.org/2000/svg" viewBox="0 0 900 900" width="900" height="900" role="img">
  <rect width="900" height="900" fill="#f6f7f7"/>
  <defs>
    <linearGradient id="body" x1="0" y1="0" x2="1" y2="1">
      <stop offset="0" stop-color="#a2bed7"/>
      <stop offset="0.55" stop-color="#9fbcd6"/>
      <stop offset="1" stop-color="#8ca5bc"/>
    </linearGradient>
    <linearGradient id="bodyV" x1="0" y1="0" x2="0" y2="1">
      <stop offset="0" stop-color="#a2bed7"/>
      <stop offset="1" stop-color="#8ca5bc"/>
    </linearGradient>
    <linearGradient id="sleeve" x1="0" y1="0" x2="1" y2="0">
      <stop offset="0" stop-color="#8ca5bc"/>
      <stop offset="1" stop-color="#9fbcd6"/>
    </linearGradient>
    <radialGradient id="cup" cx="0.36" cy="0.30" r="0.85">
      <stop offset="0" stop-color="#a2bed7"/>
      <stop offset="0.6" stop-color="#9fbcd6"/>
      <stop offset="1" stop-color="#768b9e"/>
    </radialGradient>
    <radialGradient id="shadow" cx="0.5" cy="0.5" r="0.5">
      <stop offset="0" stop-color="#000000" stop-opacity="0.20"/>
      <stop offset="1" stop-color="#000000" stop-opacity="0"/>
    </radialGradient>
  </defs>
  <ellipse cx="450" cy="760" rx="250" ry="34" fill="url(#shadow)"/>
  <g>
    <path d="M 318 214 L 244 258 L 172 402 L 264 458 L 292 396 L 292 690 L 608 690 L 608 396 L 636 458 L 728 402 L 656 258 L 582 214 L 512 214 L 450 292 L 388 214 Z" fill="url(#body)" stroke="#637585" stroke-width="4"/>
    <path d="M 244 258 L 172 402 L 196 560 L 292 548 L 292 396 Z" fill="url(#sleeve)" stroke="#637585" stroke-width="4"/>
    <path d="M 656 258 L 728 402 L 704 560 L 608 548 L 608 396 Z" fill="url(#sleeve)" stroke="#637585" stroke-width="4"/>
    <!-- placket -->
    <rect x="422" y="270" width="56" height="420" fill="#a2bed7" opacity="0.55"/>
    <path d="M 450 270 L 450 690" stroke="#637585" stroke-width="3" opacity="0.8"/>
    <!-- collar -->
    <path d="M 388 214 L 450 300 L 410 336 L 356 246 Z" fill="#a2bed7"/>
    <path d="M 512 214 L 450 300 L 490 336 L 544 246 Z" fill="#8ca5bc"/>
    <path d="M 388 214 L 450 300 L 512 214" fill="none" stroke="#637585" stroke-width="4"/>
    <circle cx="450" cy="378" r="9" fill="#637585"/>
    <circle cx="450" cy="468" r="9" fill="#637585"/>
    <circle cx="450" cy="558" r="9" fill="#637585"/>
    <circle cx="450" cy="648" r="9" fill="#637585"/>
    <!-- cuffs -->
    <rect x="188" y="528" width="112" height="34" rx="8" fill="#8ca5bc"/>
    <rect x="600" y="528" width="112" height="34" rx="8" fill="#8ca5bc"/>
  </g>
</svg>
