<svg xmlns="http://www.w3.org/2000/svg" viewBox="0 0 900 900" width="900" height="900" role="img">
  <rect width="900" height="900" fill="#f6f7f7"/>
  <defs>
    <linearGradient id="body" x1="0" y1="0" x2="1" y2="1">
      <stop offset="0" stop-color="#e7e1d5"/>
      <stop offset="0.55" stop-color="#e6e0d4"/>
      <stop offset="1" stop-color="#cac5bb"/>
    </linearGradient>
    <linearGradient id="bodyV" x1="0" y1="0" x2="0" y2="1">
      <stop offset="0" stop-color="#e7e1d5"/>
      <stop offset="1" stop-color="#cac5bb"/>
    </linearGradient>
    <linearGradient id="sleeve" x1="0" y1="0" x2="1" y2="0">
      <stop offset="0" stop-color="#cac5bb"/>
      <stop offset="1" stop-color="#e6e0d4"/>
    </linearGradient>
    <radialGradient id="cup" cx="0.36" cy="0.30" r="0.85">
      <stop offset="0" stop-color="#e7e1d5"/>
      <stop offset="0.6" stop-color="#e6e0d4"/>
      <stop offset="1" stop-color="#aaa69d"/>
    </radialGradient>
    <radialGradient id="shadow" cx="0.5" cy="0.5" r="0.5">
      <stop offset="0" stop-color="#000000" stop-opacity="0.20"/>
      <stop offset="1" stop-color="#000000" stop-opacity="0"/>
    </radialGradient>
  </defs>
  <ellipse cx="450" cy="760" rx="250" ry="34" fill="url(#shadow)"/>
  <g>
    <path d="M 300 250 C 300 140, 560 150, 606 330" fill="none" stroke="#aaa69d"
          stroke-width="30" stroke-linecap="round"/>
    <path d="M 300 250 C 300 140, 560 150, 606 330" fill="none" stroke="#e7e1d5"
          stroke-width="9" stroke-linecap="round" opacity="0.5"/>
    <rect x="590" y="300" width="26" height="80" rx="13" fill="#8f8b83"/>
    <ellipse cx="380" cy="470" rx="150" ry="168" fill="url(#cup)"/>
    <ellipse cx="380" cy="470" rx="112" ry="128" fill="#aaa69d"/>
    <ellipse cx="380" cy="470" rx="70" ry="84" fill="#8f8b83" opacity="0.75"/>
    <path d="M 300 380 q 34 -44 88 -52" stroke="#e7e1d5" stroke-width="11" fill="none"
          stroke-linecap="round" opacity="0.5"/>
    <ellipse cx="600" cy="460" rx="72" ry="126" fill="#cac5bb"/>
    <ellipse cx="600" cy="460" rx="48" ry="98" fill="#aaa69d"/>
  </g>
</svg>
