<svg xmlns="http://www.w3.org/2000/svg" viewBox="0 0 900 900" width="900" height="900" role="img">
  <rect width="900" height="900" fill="#f6f7f7"/>
  <defs>
    <linearGradient id="body" x1="0" y1="0" x2="1" y2="1">
      <stop offset="0" stop-color="#3d3f43"/>
      <stop offset="0.55" stop-color="#1e2024"/>
      <stop offset="1" stop-color="#181a1d"/>
    </linearGradient>
    <linearGradient id="bodyV" x1="0" y1="0" x2="0" y2="1">
      <stop offset="0" stop-color="#3d3f43"/>
      <stop offset="1" stop-color="#181a1d"/>
    </linearGradient>
    <linearGradient id="sleeve" x1="0" y1="0" x2="1" y2="0">
      <stop offset="0" stop-color="#181a1d"/>
      <stop offset="1" stop-color="#1e2024"/>
    </linearGradient>
    <radialGradient id="cup" cx="0.36" cy="0.30" r="0.85">
      <stop offset="0" stop-color="#3d3f43"/>
      <stop offset="0.6" stop-color="#1e2024"/>
      <stop offset="1" stop-color="#131416"/>
    </radialGradient>
    <radialGradient id="shadow" cx="0.5" cy="0.5" r="0.5">
      <stop offset="0" stop-color="#000000" stop-opacity="0.20"/>
      <stop offset="1" stop-color="#000000" stop-opacity="0"/>
    </radialGradient>
  </defs>
  <ellipse cx="450" cy="760" rx="250" ry="34" fill="url(#shadow)"/>
  <g>
    <path d="M 250 400 C 250 150, 650 150, 650 400"
          fill="none" stroke="#131416" stroke-width="30" stroke-linecap="round"/>
    <path d="M 250 400 C 250 150, 650 150, 650 400"
          fill="none" stroke="#3d3f43" stroke-width="9"
          stroke-linecap="round" opacity="0.55"/>
    <path d="M 276 330 C 290 205, 610 205, 624 330"
          fill="none" stroke="#0c0d0e" stroke-width="16" stroke-linecap="round" opacity="0.85"/>
    <!-- yokes -->
    <rect x="237" y="352" width="26" height="86" rx="13" fill="#0c0d0e"/>
    <rect x="637" y="352" width="26" height="86" rx="13" fill="#0c0d0e"/>
    <!-- cups -->
    <rect x="175.0" y="418" width="150.0" height="188.0" rx="66" fill="url(#cup)" stroke="#16181b" stroke-width="2"/>
    <rect x="575.0" y="418" width="150.0" height="188.0" rx="66" fill="url(#cup)" stroke="#16181b" stroke-width="2"/>
    <!-- ear pads -->
    <rect x="192.0" y="437" width="116.0" height="150.0"
          rx="51" fill="#131416"/>
    <rect x="592.0" y="437" width="116.0" height="150.0"
          rx="51" fill="#131416"/>
    <ellipse cx="250" cy="512" rx="36" ry="49" fill="#0c0d0e" opacity="0.7"/>
    <ellipse cx="650" cy="512" rx="36" ry="49" fill="#0c0d0e" opacity="0.7"/>
    <!-- highlight -->
    <path d="M 195.0 470 q 14 -34 46 -40" stroke="#3d3f43" stroke-width="9"
          fill="none" stroke-linecap="round" opacity="0.55"/>
  </g>
</svg>
