<svg xmlns="http://www.w3.org/2000/svg" viewBox="0 0 900 900" width="900" height="900" role="img">
  <rect width="900" height="900" fill="#f6f7f7"/>
  <defs>
    <linearGradient id="body" x1="0" y1="0" x2="1" y2="1">
      <stop offset="0" stop-color="#8d6b50"/>
      <stop offset="0.55" stop-color="#7b5334"/>
      <stop offset="1" stop-color="#62422a"/>
    </linearGradient>
    <linearGradient id="bodyV" x1="0" y1="0" x2="0" y2="1">
      <stop offset="0" stop-color="#8d6b50"/>
      <stop offset="1" stop-color="#62422a"/>
    </linearGradient>
    <linearGradient id="sleeve" x1="0" y1="0" x2="1" y2="0">
      <stop offset="0" stop-color="#62422a"/>
      <stop offset="1" stop-color="#7b5334"/>
    </linearGradient>
    <radialGradient id="cup" cx="0.36" cy="0.30" r="0.85">
      <stop offset="0" stop-color="#8d6b50"/>
      <stop offset="0.6" stop-color="#7b5334"/>
      <stop offset="1" stop-color="#4c3320"/>
    </radialGradient>
    <radialGradient id="shadow" cx="0.5" cy="0.5" r="0.5">
      <stop offset="0" stop-color="#000000" stop-opacity="0.20"/>
      <stop offset="1" stop-color="#000000" stop-opacity="0"/>
    </radialGradient>
  </defs>
  <ellipse cx="450" cy="760" rx="250" ry="34" fill="url(#shadow)"/>
  <g>
    <ellipse cx="450" cy="430" rx="300" ry="320" fill="url(#cup)"/>
    <ellipse cx="450" cy="430" rx="232" ry="250" fill="#4c3320"/>
    <ellipse cx="450" cy="430" rx="176" ry="192" fill="#62422a"/>
    <circle cx="450" cy="430" r="60" fill="none" stroke="#312115" stroke-width="3" opacity="0.5"/><circle cx="450" cy="430" r="78" fill="none" stroke="#312115" stroke-width="3" opacity="0.5"/><circle cx="450" cy="430" r="96" fill="none" stroke="#312115" stroke-width="3" opacity="0.5"/><circle cx="450" cy="430" r="114" fill="none" stroke="#312115" stroke-width="3" opacity="0.5"/><circle cx="450" cy="430" r="132" fill="none" stroke="#312115" stroke-width="3" opacity="0.5"/>
    <circle cx="450" cy="430" r="34" fill="#312115"/>
    <path d="M 270 300 q 60 -78 168 -96" stroke="#8d6b50" stroke-width="16" fill="none"
          stroke-linecap="round" opacity="0.45"/>
  </g>
</svg>
